<svg width="223" height="47" viewBox="0 0 223 47" fill="none" xmlns="http://www.w3.org/2000/svg">
<g filter="url(#filter0_b_89_1024)">
<rect width="223" height="47" rx="23.5" fill="#00ADB5"/>
<g filter="url(#filter1_d_89_1024)">
<path d="M37.85 17.364C39.182 17.364 40.346 17.628 41.342 18.156C42.338 18.684 43.106 19.428 43.646 20.388C44.198 21.336 44.474 22.434 44.474 23.682C44.474 24.918 44.198 26.016 43.646 26.976C43.106 27.936 42.332 28.68 41.324 29.208C40.328 29.736 39.17 30 37.85 30H33.116V17.364H37.85ZM37.652 27.336C38.816 27.336 39.722 27.018 40.37 26.382C41.018 25.746 41.342 24.846 41.342 23.682C41.342 22.518 41.018 21.612 40.37 20.964C39.722 20.316 38.816 19.992 37.652 19.992H36.194V27.336H37.652ZM50.7661 30.144C49.7821 30.144 48.8941 29.934 48.1021 29.514C47.3221 29.094 46.7041 28.494 46.2481 27.714C45.8041 26.934 45.5821 26.022 45.5821 24.978C45.5821 23.946 45.8101 23.04 46.2661 22.26C46.7221 21.468 47.3461 20.862 48.1381 20.442C48.9301 20.022 49.8181 19.812 50.8021 19.812C51.7861 19.812 52.6741 20.022 53.4661 20.442C54.2581 20.862 54.8821 21.468 55.3381 22.26C55.7941 23.04 56.0221 23.946 56.0221 24.978C56.0221 26.01 55.7881 26.922 55.3201 27.714C54.8641 28.494 54.2341 29.094 53.4301 29.514C52.6381 29.934 51.7501 30.144 50.7661 30.144ZM50.7661 27.48C51.3541 27.48 51.8521 27.264 52.2601 26.832C52.6801 26.4 52.8901 25.782 52.8901 24.978C52.8901 24.174 52.6861 23.556 52.2781 23.124C51.8821 22.692 51.3901 22.476 50.8021 22.476C50.2021 22.476 49.7041 22.692 49.3081 23.124C48.9121 23.544 48.7141 24.162 48.7141 24.978C48.7141 25.782 48.9061 26.4 49.2901 26.832C49.6861 27.264 50.1781 27.48 50.7661 27.48ZM72.0731 19.956L69.3551 30H65.9531L64.3691 23.484L62.7311 30H59.3471L56.6111 19.956H59.6891L61.1111 27.138L62.8031 19.956H66.0611L67.7711 27.102L69.1751 19.956H72.0731ZM79.3669 19.848C80.5429 19.848 81.4789 20.232 82.1749 21C82.8829 21.756 83.2369 22.8 83.2369 24.132V30H80.1769V24.546C80.1769 23.874 80.0029 23.352 79.6549 22.98C79.3069 22.608 78.8389 22.422 78.2509 22.422C77.6629 22.422 77.1949 22.608 76.8469 22.98C76.4989 23.352 76.3249 23.874 76.3249 24.546V30H73.2469V19.956H76.3249V21.288C76.6369 20.844 77.0569 20.496 77.5849 20.244C78.1129 19.98 78.7069 19.848 79.3669 19.848ZM88.4538 16.68V30H85.3758V16.68H88.4538ZM95.2564 30.144C94.2724 30.144 93.3844 29.934 92.5924 29.514C91.8124 29.094 91.1944 28.494 90.7384 27.714C90.2944 26.934 90.0724 26.022 90.0724 24.978C90.0724 23.946 90.3004 23.04 90.7564 22.26C91.2124 21.468 91.8364 20.862 92.6284 20.442C93.4204 20.022 94.3084 19.812 95.2924 19.812C96.2764 19.812 97.1644 20.022 97.9564 20.442C98.7484 20.862 99.3724 21.468 99.8284 22.26C100.284 23.04 100.512 23.946 100.512 24.978C100.512 26.01 100.278 26.922 99.8104 27.714C99.3544 28.494 98.7244 29.094 97.9204 29.514C97.1284 29.934 96.2404 30.144 95.2564 30.144ZM95.2564 27.48C95.8444 27.48 96.3424 27.264 96.7504 26.832C97.1704 26.4 97.3804 25.782 97.3804 24.978C97.3804 24.174 97.1764 23.556 96.7684 23.124C96.3724 22.692 95.8804 22.476 95.2924 22.476C94.6924 22.476 94.1944 22.692 93.7984 23.124C93.4024 23.544 93.2044 24.162 93.2044 24.978C93.2044 25.782 93.3964 26.4 93.7804 26.832C94.1764 27.264 94.6684 27.48 95.2564 27.48ZM101.533 24.96C101.533 23.928 101.725 23.022 102.109 22.242C102.505 21.462 103.039 20.862 103.711 20.442C104.383 20.022 105.133 19.812 105.961 19.812C106.669 19.812 107.287 19.956 107.815 20.244C108.355 20.532 108.769 20.91 109.057 21.378V19.956H112.135V30H109.057V28.578C108.757 29.046 108.337 29.424 107.797 29.712C107.269 30 106.651 30.144 105.943 30.144C105.127 30.144 104.383 29.934 103.711 29.514C103.039 29.082 102.505 28.476 102.109 27.696C101.725 26.904 101.533 25.992 101.533 24.96ZM109.057 24.978C109.057 24.21 108.841 23.604 108.409 23.16C107.989 22.716 107.473 22.494 106.861 22.494C106.249 22.494 105.727 22.716 105.295 23.16C104.875 23.592 104.665 24.192 104.665 24.96C104.665 25.728 104.875 26.34 105.295 26.796C105.727 27.24 106.249 27.462 106.861 27.462C107.473 27.462 107.989 27.24 108.409 26.796C108.841 26.352 109.057 25.746 109.057 24.978ZM113.75 24.96C113.75 23.928 113.942 23.022 114.326 22.242C114.722 21.462 115.256 20.862 115.928 20.442C116.6 20.022 117.35 19.812 118.178 19.812C118.838 19.812 119.438 19.95 119.978 20.226C120.53 20.502 120.962 20.874 121.274 21.342V16.68H124.352V30H121.274V28.56C120.986 29.04 120.572 29.424 120.032 29.712C119.504 30 118.886 30.144 118.178 30.144C117.35 30.144 116.6 29.934 115.928 29.514C115.256 29.082 114.722 28.476 114.326 27.696C113.942 26.904 113.75 25.992 113.75 24.96ZM121.274 24.978C121.274 24.21 121.058 23.604 120.626 23.16C120.206 22.716 119.69 22.494 119.078 22.494C118.466 22.494 117.944 22.716 117.512 23.16C117.092 23.592 116.882 24.192 116.882 24.96C116.882 25.728 117.092 26.34 117.512 26.796C117.944 27.24 118.466 27.462 119.078 27.462C119.69 27.462 120.206 27.24 120.626 26.796C121.058 26.352 121.274 25.746 121.274 24.978ZM129.871 23.664C129.871 22.416 130.141 21.306 130.681 20.334C131.221 19.35 131.971 18.588 132.931 18.048C133.903 17.496 135.001 17.22 136.225 17.22C137.725 17.22 139.009 17.616 140.077 18.408C141.145 19.2 141.859 20.28 142.219 21.648H138.835C138.583 21.12 138.223 20.718 137.755 20.442C137.299 20.166 136.777 20.028 136.189 20.028C135.241 20.028 134.473 20.358 133.885 21.018C133.297 21.678 133.003 22.56 133.003 23.664C133.003 24.768 133.297 25.65 133.885 26.31C134.473 26.97 135.241 27.3 136.189 27.3C136.777 27.3 137.299 27.162 137.755 26.886C138.223 26.61 138.583 26.208 138.835 25.68H142.219C141.859 27.048 141.145 28.128 140.077 28.92C139.009 29.7 137.725 30.09 136.225 30.09C135.001 30.09 133.903 29.82 132.931 29.28C131.971 28.728 131.221 27.966 130.681 26.994C130.141 26.022 129.871 24.912 129.871 23.664ZM155.966 17.364L151.484 30H147.632L143.15 17.364H146.426L149.558 26.904L152.708 17.364H155.966Z" fill="white"/>
</g>
<path d="M188 26.5V30.5C188 31.0304 187.789 31.5391 187.414 31.9142C187.039 32.2893 186.53 32.5 186 32.5H172C171.47 32.5 170.961 32.2893 170.586 31.9142C170.211 31.5391 170 31.0304 170 30.5V26.5" stroke="#EEEEEE" stroke-width="2" stroke-linecap="round" stroke-linejoin="round"/>
<path d="M174 21.5L179 26.5L184 21.5" stroke="#EEEEEE" stroke-width="2" stroke-linecap="round" stroke-linejoin="round"/>
<path d="M179 26.5V14.5" stroke="#EEEEEE" stroke-width="2" stroke-linecap="round" stroke-linejoin="round"/>
</g>
<defs>
<filter id="filter0_b_89_1024" x="-4" y="-4" width="231" height="55" filterUnits="userSpaceOnUse" color-interpolation-filters="sRGB">
<feFlood flood-opacity="0" result="BackgroundImageFix"/>
<feGaussianBlur in="BackgroundImageFix" stdDeviation="2"/>
<feComposite in2="SourceAlpha" operator="in" result="effect1_backgroundBlur_89_1024"/>
<feBlend mode="normal" in="SourceGraphic" in2="effect1_backgroundBlur_89_1024" result="shape"/>
</filter>
<filter id="filter1_d_89_1024" x="29.116" y="16.68" width="130.85" height="21.464" filterUnits="userSpaceOnUse" color-interpolation-filters="sRGB">
<feFlood flood-opacity="0" result="BackgroundImageFix"/>
<feColorMatrix in="SourceAlpha" type="matrix" values="0 0 0 0 0 0 0 0 0 0 0 0 0 0 0 0 0 0 127 0" result="hardAlpha"/>
<feOffset dy="4"/>
<feGaussianBlur stdDeviation="2"/>
<feComposite in2="hardAlpha" operator="out"/>
<feColorMatrix type="matrix" values="0 0 0 0 0 0 0 0 0 0 0 0 0 0 0 0 0 0 0.5 0"/>
<feBlend mode="normal" in2="BackgroundImageFix" result="effect1_dropShadow_89_1024"/>
<feBlend mode="normal" in="SourceGraphic" in2="effect1_dropShadow_89_1024" result="shape"/>
</filter>
</defs>
</svg>
