<svg width="62" height="60" viewBox="0 0 62 60" fill="none" xmlns="http://www.w3.org/2000/svg">
<path fill-rule="evenodd" clip-rule="evenodd" d="M24 25C24 24.7348 24.1054 24.4804 24.2929 24.2929C24.4804 24.1054 24.7348 24 25 24H37C37.2652 24 37.5196 24.1054 37.7071 24.2929C37.8946 24.4804 38 24.7348 38 25C38 25.2652 37.8946 25.5196 37.7071 25.7071C37.5196 25.8946 37.2652 26 37 26H25C24.7348 26 24.4804 25.8946 24.2929 25.7071C24.1054 25.5196 24 25.2652 24 25ZM24 30C24 29.7348 24.1054 29.4804 24.2929 29.2929C24.4804 29.1054 24.7348 29 25 29H37C37.2652 29 37.5196 29.1054 37.7071 29.2929C37.8946 29.4804 38 29.7348 38 30C38 30.2652 37.8946 30.5196 37.7071 30.7071C37.5196 30.8946 37.2652 31 37 31H25C24.7348 31 24.4804 30.8946 24.2929 30.7071C24.1054 30.5196 24 30.2652 24 30ZM24 35C24 34.7348 24.1054 34.4804 24.2929 34.2929C24.4804 34.1054 24.7348 34 25 34H37C37.2652 34 37.5196 34.1054 37.7071 34.2929C37.8946 34.4804 38 34.7348 38 35C38 35.2652 37.8946 35.5196 37.7071 35.7071C37.5196 35.8946 37.2652 36 37 36H25C24.7348 36 24.4804 35.8946 24.2929 35.7071C24.1054 35.5196 24 35.2652 24 35Z" fill="#C0C0C0"/>
</svg>
